<?xml version="1.0" encoding="UTF-8"?>
<svg xmlns="http://www.w3.org/2000/svg" xmlns:xlink="http://www.w3.org/1999/xlink" width="732.29pt" height="167.42pt" viewBox="0 0 732.29 167.42" version="1.1">
<defs>
<clipPath id="clip1">
  <path d="M 544 102 L 623 102 L 623 167.421875 L 544 167.421875 Z M 544 102 "/>
</clipPath>
<clipPath id="clip2">
  <path d="M 635 102 L 714 102 L 714 167.421875 L 635 167.421875 Z M 635 102 "/>
</clipPath>
<clipPath id="clip3">
  <path d="M 717 151 L 732.289063 151 L 732.289063 167 L 717 167 Z M 717 151 "/>
</clipPath>
<clipPath id="clip4">
  <path d="M 78 45 L 158 45 L 158 167.421875 L 78 167.421875 Z M 78 45 "/>
</clipPath>
</defs>
<g id="surface1">
<path style=" stroke:none;fill-rule:nonzero;fill:rgb(13.699341%,12.199402%,12.5%);fill-opacity:1;" d="M 207.597656 14.898438 C 210.660156 16.070313 213.085938 17.773438 214.875 20 C 215.75 21.289063 217.582031 25.722656 220.367188 33.300781 L 199.863281 33.472656 L 199.371094 32.128906 C 199.128906 31.65625 198.84375 31.347656 198.519531 31.191406 L 197.785156 30.957031 C 197.296875 30.957031 197.195313 30.914063 197.480469 30.839844 C 197.765625 30.761719 197.664063 30.71875 197.175781 30.71875 L 196.445313 30.957031 C 196.117188 31.109375 195.832031 31.425781 195.589844 31.890625 L 195.101563 33.238281 L 174.59375 33.066406 C 177.378906 25.484375 179.210938 21.050781 180.085938 19.761719 C 181.875 17.539063 184.304688 15.839844 187.363281 14.664063 C 190.425781 13.492188 193.453125 12.90625 196.445313 12.90625 L 198.886719 12.90625 C 201.632813 13.066406 204.535156 13.726563 207.597656 14.898438 M 191.988281 75.195313 L 214.265625 75.015625 L 202.546875 40.566406 L 222.8125 40.566406 C 225.355469 47.984375 228.671875 57.847656 232.761719 70.15625 C 236.5625 81.636719 239.003906 89.179688 240.085938 92.773438 L 154.757813 92.773438 C 155.835938 89.179688 158.277344 81.636719 162.078125 70.15625 C 166.171875 57.847656 169.484375 47.984375 172.03125 40.566406 L 192.292969 40.566406 L 180.574219 75.015625 L 185.214844 75.015625 "/>
<path style=" stroke:none;fill-rule:nonzero;fill:rgb(13.699341%,12.199402%,12.5%);fill-opacity:1;" d="M 303.804688 13.144531 L 322.238281 13.144531 L 322.238281 33.066406 L 303.804688 33.066406 Z M 290.378906 90.191406 C 286.023438 87.382813 282.972656 83.417969 281.222656 78.300781 C 280.8125 77.089844 277.03125 64.511719 269.867188 40.5625 L 276.949219 40.5625 L 289.828125 40.621094 C 294.507813 59.371094 297.457031 69.980469 298.675781 72.4375 C 299.328125 73.378906 300 73.964844 300.691406 74.195313 C 301.382813 74.433594 302.054688 74.3125 302.707031 73.847656 C 303.355469 73.378906 303.722656 72.285156 303.804688 70.5625 L 303.804688 40.5625 L 322.238281 40.5625 L 322.238281 76.773438 C 322.238281 81.855469 320.070313 86.03125 315.738281 89.3125 C 311.667969 92.402344 307.691406 93.492188 303.804688 92.597656 C 298.757813 93.0625 294.28125 92.265625 290.378906 90.191406 M 263.824219 92.773438 L 245.453125 92.773438 L 245.453125 40.5625 L 263.765625 40.5625 Z M 245.453125 33.769531 L 245.453125 30.484375 C 245.535156 25.328125 247.488281 20.488281 251.3125 15.953125 C 255.546875 13.769531 259.695313 12.832031 263.765625 13.144531 C 271.738281 13.300781 278.066406 16.835938 282.746094 23.746094 C 285.980469 29.0625 287.792969 32.460938 288.179688 33.941406 L 266.9375 33.769531 "/>
<path style=" stroke:none;fill-rule:nonzero;fill:rgb(13.699341%,12.199402%,12.5%);fill-opacity:1;" d="M 392.761719 13.847656 L 414.066406 13.847656 L 400.882813 33.066406 L 379.761719 33.066406 Z M 396.363281 40.566406 L 380.433594 63.824219 L 380.433594 92.773438 L 362.0625 92.773438 L 362.0625 63.824219 L 346.925781 40.566406 L 368.164063 40.566406 L 369.632813 42.910156 C 369.976563 43.691406 370.558594 44.078125 371.371094 44.078125 C 372.183594 44.078125 372.765625 43.75 373.109375 43.085938 L 374.878906 40.566406 Z M 341.921875 33.066406 L 328.738281 13.847656 L 350.039063 13.847656 L 363.039063 33.066406 Z M 341.921875 33.066406 "/>
<path style=" stroke:none;fill-rule:nonzero;fill:rgb(13.699341%,12.199402%,12.5%);fill-opacity:1;" d="M 463.6875 92.773438 L 445.742188 92.773438 L 445.742188 40.566406 L 463.6875 40.566406 Z M 489.441406 13.144531 L 489.441406 30.367188 L 454.714844 30.3125 L 419.984375 30.3125 L 419.984375 13.144531 L 456.421875 13.144531 "/>
<path style=" stroke:none;fill-rule:nonzero;fill:rgb(13.699341%,12.199402%,12.5%);fill-opacity:1;" d="M 514.773438 92.773438 L 496.859375 92.773438 L 496.859375 66.464844 L 496.828125 40.566406 L 514.773438 40.566406 Z M 514.773438 33.066406 L 496.828125 33.066406 L 496.828125 13.144531 L 514.773438 13.144531 Z M 514.773438 33.066406 "/>
<path style=" stroke:none;fill-rule:nonzero;fill:rgb(13.699341%,12.199402%,12.5%);fill-opacity:1;" d="M 618.226563 92.773438 L 604.433594 45.605469 L 602.90625 40.566406 L 621.554688 40.625 L 637.027344 92.773438 Z M 600.832031 33.769531 C 599.449219 30.644531 598.269531 30.644531 597.289063 33.769531 L 578.980469 33.769531 L 578.980469 29.257813 C 578.980469 23.398438 581.257813 18.941406 585.816406 15.898438 C 589.480469 13.902344 593.265625 12.984375 597.171875 13.144531 C 599.855469 13.144531 602.175781 13.347656 604.128906 13.757813 C 606.082031 14.167969 608.035156 15.230469 609.988281 16.953125 C 614.136719 20.664063 616.730469 24.296875 617.769531 27.847656 L 619.507813 33.769531 Z M 578.738281 64.707031 L 578.738281 40.566406 L 597.171875 40.566406 C 597.171875 69.785156 595.003906 86.035156 590.671875 89.316406 C 586.539063 91.660156 582.378906 92.792969 578.1875 92.710938 C 573.996094 92.636719 570.03125 91.796875 566.285156 90.195313 C 561.933594 87.378906 558.878906 83.417969 557.128906 78.296875 C 556.722656 77.089844 552.9375 64.511719 545.777344 40.566406 L 552.859375 40.566406 L 565.738281 40.625 C 570.414063 59.375 573.367188 69.980469 574.585938 72.441406 C 575.238281 73.375 575.910156 73.960938 576.601563 74.199219 C 577.289063 74.429688 578.003906 73.375 578.738281 71.035156 Z M 539.734375 92.773438 L 521.363281 92.773438 L 521.363281 40.566406 L 539.675781 40.566406 Z M 521.363281 33.769531 L 521.363281 30.484375 C 521.445313 25.332031 523.398438 20.484375 527.222656 15.957031 C 531.453125 13.769531 535.605469 12.832031 539.675781 13.144531 C 547.648438 13.300781 553.976563 16.835938 558.65625 23.75 C 561.890625 29.0625 563.703125 32.460938 564.089844 33.941406 L 542.847656 33.769531 "/>
<path style=" stroke:none;fill-rule:nonzero;fill:rgb(13.699341%,12.199402%,12.5%);fill-opacity:1;" d="M 712.921875 92.363281 L 665.804688 92.363281 C 658.742188 92.363281 653.148438 89.863281 649.019531 84.863281 C 645.296875 80.292969 643.425781 74.902344 643.402344 68.691406 L 643.402344 40.566406 L 661.59375 40.566406 L 661.59375 44.082031 L 712.863281 44.082031 L 712.863281 61.425781 L 661.59375 61.425781 L 661.59375 68.457031 C 662 70.332031 662.792969 71.921875 663.972656 73.230469 C 665.152344 74.539063 666.78125 75.195313 668.855469 75.195313 L 712.921875 75.195313 Z M 694.550781 29.78125 L 668.304688 29.78125 C 666.371094 29.941406 664.777344 30.777344 663.515625 32.300781 L 662.570313 33.066406 L 643.402344 33.066406 C 643.320313 29.628906 645.03125 25.546875 648.53125 20.816406 C 652.679688 15.777344 658.265625 13.257813 665.285156 13.257813 L 712.863281 13.140625 L 712.863281 29.78125 "/>
<path style=" stroke:none;fill-rule:nonzero;fill:rgb(13.699341%,12.199402%,12.5%);fill-opacity:1;" d="M 189.109375 166.503906 L 169.613281 166.503906 L 169.613281 125.148438 L 189.109375 125.148438 L 189.109375 127.953125 L 244.136719 127.953125 L 244.136719 141.800781 L 189.109375 141.800781 Z M 224.441406 116.539063 L 196.308594 116.539063 C 194.234375 116.664063 192.523438 117.335938 191.171875 118.550781 L 190.15625 119.160156 L 169.613281 119.160156 C 169.527344 116.414063 171.359375 113.15625 175.109375 109.382813 C 179.558594 105.359375 185.546875 103.347656 193.070313 103.347656 L 244.070313 103.253906 L 244.070313 116.539063 "/>
<path style=" stroke:none;fill-rule:nonzero;fill:rgb(13.699341%,12.199402%,12.5%);fill-opacity:1;" d="M 273.199219 166.832031 L 253.996094 166.832031 L 253.996094 145.824219 L 253.964844 125.148438 L 273.199219 125.148438 Z M 273.199219 119.160156 L 253.964844 119.160156 L 253.964844 103.253906 L 273.199219 103.253906 Z M 273.199219 119.160156 "/>
<path style=" stroke:none;fill-rule:nonzero;fill:rgb(13.699341%,12.199402%,12.5%);fill-opacity:1;" d="M 331.449219 166.832031 L 312.210938 166.832031 L 312.210938 125.148438 L 331.449219 125.148438 Z M 359.058594 103.253906 L 359.058594 117.007813 L 321.828125 116.960938 L 284.601563 116.960938 L 284.601563 103.253906 L 323.660156 103.253906 "/>
<path style=" stroke:none;fill-rule:nonzero;fill:rgb(13.699341%,12.199402%,12.5%);fill-opacity:1;" d="M 429.109375 103.253906 L 448.097656 103.253906 L 448.097656 119.160156 L 429.109375 119.160156 Z M 415.277344 164.773438 C 410.792969 162.527344 407.648438 159.359375 405.847656 155.273438 C 405.425781 154.308594 401.527344 144.265625 394.152344 125.148438 L 401.445313 125.148438 L 414.710938 125.195313 C 419.53125 140.164063 422.570313 148.632813 423.828125 150.597656 C 424.5 151.347656 425.191406 151.8125 425.902344 152 C 426.617188 152.1875 427.308594 152.09375 427.980469 151.71875 C 428.648438 151.347656 429.027344 150.472656 429.109375 149.101563 L 429.109375 125.148438 L 448.097656 125.148438 L 448.097656 154.058594 C 448.097656 158.113281 445.867188 161.449219 441.402344 164.070313 C 437.210938 166.535156 433.113281 167.40625 429.109375 166.691406 C 423.910156 167.0625 419.300781 166.425781 415.277344 164.773438 M 387.929688 166.832031 L 369.003906 166.832031 L 369.003906 125.148438 L 387.863281 125.148438 Z M 369.003906 119.722656 L 369.003906 117.101563 C 369.085938 112.984375 371.097656 109.117188 375.039063 105.5 C 379.398438 103.753906 383.671875 103.003906 387.863281 103.253906 C 396.078125 103.378906 402.597656 106.199219 407.417969 111.722656 C 410.75 115.964844 412.613281 118.675781 413.015625 119.859375 L 391.132813 119.722656 "/>
<path style=" stroke:none;fill-rule:nonzero;fill:rgb(13.699341%,12.199402%,12.5%);fill-opacity:1;" d="M 530.40625 166.503906 L 483.625 166.503906 C 476.058594 166.503906 470.058594 164.507813 465.632813 160.515625 C 461.640625 156.867188 459.636719 152.5625 459.613281 147.601563 L 459.613281 125.148438 L 479.109375 125.148438 L 479.109375 127.953125 L 530.339844 127.953125 L 530.339844 141.800781 L 530.40625 141.800781 L 479.109375 141.800781 L 479.109375 147.417969 C 479.546875 148.914063 480.398438 150.183594 481.664063 151.230469 C 482.925781 152.273438 484.671875 152.796875 486.898438 152.796875 L 530.40625 152.796875 Z M 514.441406 116.539063 L 486.308594 116.539063 C 484.234375 116.664063 482.523438 117.335938 481.171875 118.550781 L 480.15625 119.160156 L 459.613281 119.160156 C 459.527344 116.414063 461.359375 113.15625 465.109375 109.382813 C 469.558594 105.359375 475.546875 103.347656 483.070313 103.347656 L 530.339844 103.253906 L 530.339844 116.539063 "/>
<g clip-path="url(#clip1)" clip-rule="nonzero">
<path style=" stroke:none;fill-rule:nonzero;fill:rgb(13.699341%,12.199402%,12.5%);fill-opacity:1;" d="M 568.175781 116.335938 C 566.105469 116.460938 565.039063 118.984375 565.039063 118.984375 L 544.140625 118.984375 C 544.074219 116.082031 545.03125 111.785156 549.015625 108.097656 C 553.457031 104.03125 560.433594 102.996094 567.945313 102.996094 L 622.054688 102.902344 L 622.054688 116.335938 Z M 577.863281 124.964844 C 577.863281 124.964844 605.902344 133.476563 612.496094 136.121094 C 617.535156 138.140625 622.414063 144.304688 622.414063 149.601563 C 622.414063 154.898438 620.433594 159.394531 616.46875 163.082031 C 612.050781 167.148438 606.128906 167.183594 598.707031 167.183594 L 548.328125 167.039063 L 548.328125 153.417969 C 548.328125 153.417969 599.191406 153.558594 600.835938 153.558594 C 602.476563 153.558594 603.398438 152.164063 603.398438 150.554688 C 603.398438 148.980469 602.464844 147.234375 600.835938 146.882813 C 599.148438 146.515625 558.316406 134.667969 551.945313 131.335938 C 547.136719 128.820313 544.816406 125.039063 544.816406 125.039063 "/>
</g>
<g clip-path="url(#clip2)" clip-rule="nonzero">
<path style=" stroke:none;fill-rule:nonzero;fill:rgb(13.699341%,12.199402%,12.5%);fill-opacity:1;" d="M 659.761719 116.335938 C 657.691406 116.460938 656.625 118.984375 656.625 118.984375 L 635.726563 118.984375 C 635.660156 116.082031 636.617188 111.785156 640.601563 108.097656 C 645.042969 104.03125 652.019531 102.996094 659.53125 102.996094 L 713.640625 102.902344 L 713.640625 116.335938 Z M 669.449219 124.964844 C 669.449219 124.964844 697.488281 133.476563 704.085938 136.121094 C 709.121094 138.140625 714 144.304688 714 149.601563 C 714 154.898438 712.019531 159.394531 708.054688 163.082031 C 703.636719 167.148438 697.714844 167.183594 690.292969 167.183594 L 639.914063 167.039063 L 639.914063 153.417969 C 639.914063 153.417969 690.777344 153.558594 692.421875 153.558594 C 694.0625 153.558594 694.984375 152.164063 694.984375 150.554688 C 694.984375 148.980469 694.050781 147.234375 692.421875 146.882813 C 690.734375 146.515625 649.902344 134.667969 643.53125 131.335938 C 638.722656 128.820313 636.402344 125.039063 636.402344 125.039063 "/>
</g>
<g clip-path="url(#clip3)" clip-rule="nonzero">
<path style=" stroke:none;fill-rule:nonzero;fill:rgb(13.699341%,12.199402%,12.5%);fill-opacity:1;" d="M 723.597656 158.578125 L 724.554688 158.578125 C 725.640625 158.578125 726.5625 158.183594 726.5625 157.160156 C 726.5625 156.4375 726.035156 155.710938 724.554688 155.710938 C 724.125 155.710938 723.828125 155.746094 723.597656 155.777344 Z M 723.597656 163.15625 L 722.28125 163.15625 L 722.28125 154.890625 C 722.972656 154.789063 723.628906 154.691406 724.617188 154.691406 C 725.871094 154.691406 726.695313 154.953125 727.1875 155.316406 C 727.683594 155.679688 727.945313 156.238281 727.945313 157.03125 C 727.945313 158.117188 727.222656 158.773438 726.332031 159.039063 L 726.332031 159.105469 C 727.058594 159.234375 727.550781 159.894531 727.714844 161.113281 C 727.910156 162.398438 728.109375 162.890625 728.242188 163.15625 L 726.859375 163.15625 C 726.660156 162.890625 726.464844 162.136719 726.300781 161.050781 C 726.101563 159.996094 725.574219 159.597656 724.519531 159.597656 L 723.597656 159.597656 Z M 724.980469 152.582031 C 721.71875 152.582031 719.050781 155.382813 719.050781 158.839844 C 719.050781 162.367188 721.71875 165.132813 725.015625 165.132813 C 728.308594 165.167969 730.945313 162.367188 730.945313 158.875 C 730.945313 155.382813 728.308594 152.582031 725.015625 152.582031 Z M 725.015625 151.429688 C 729.066406 151.429688 732.292969 154.722656 732.292969 158.839844 C 732.292969 163.023438 729.066406 166.285156 724.980469 166.285156 C 720.929688 166.285156 717.636719 163.023438 717.636719 158.839844 C 717.636719 154.722656 720.929688 151.429688 724.980469 151.429688 "/>
</g>
<path style=" stroke:none;fill-rule:nonzero;fill:rgb(46.299744%,43.899536%,70.199585%);fill-opacity:1;" d="M 83.273438 45.214844 C 83.273438 45.214844 116.398438 0 128.421875 0 C 162.453125 25.703125 169.03125 42.039063 160.410156 42.039063 C 151.789063 42.039063 134.109375 27.195313 127.515625 19.351563 C 119.46875 19.523438 83.273438 45.214844 83.273438 45.214844 "/>
<path style=" stroke:none;fill-rule:nonzero;fill:rgb(46.299744%,43.899536%,70.199585%);fill-opacity:1;" d="M 79.996094 47.703125 C 79.996094 47.703125 49.871094 94.96875 37.875 95.746094 C 2.25 72.304688 -5.375 56.429688 3.226563 55.871094 C 11.832031 55.3125 30.4375 68.980469 37.527344 76.378906 C 45.546875 75.6875 79.996094 47.703125 79.996094 47.703125 "/>
<path style=" stroke:none;fill-rule:nonzero;fill:rgb(46.299744%,43.899536%,70.199585%);fill-opacity:1;" d="M 61.492188 47.703125 C 49.921875 47.703125 47.199219 31.828125 47.199219 25.929688 C 47.199219 20.03125 52.871094 6.871094 61.492188 6.871094 C 70.113281 6.871094 79.996094 22.753906 79.996094 33.871094 C 79.996094 41.8125 66.546875 47.703125 61.492188 47.703125 "/>
<g clip-path="url(#clip4)" clip-rule="nonzero">
<path style=" stroke:none;fill-rule:nonzero;fill:rgb(46.299744%,43.899536%,70.199585%);fill-opacity:1;" d="M 135.226563 92.898438 C 135.226563 78.339844 101.0625 45.214844 86.089844 45.214844 C 54.480469 45.214844 132.960938 76.75 132.960938 98.078125 C 132.960938 101.339844 90.761719 126.4375 90.761719 139.824219 C 90.761719 155.929688 139.992188 167.421875 147.707031 167.421875 C 155.421875 167.421875 163.839844 153.660156 150.203125 146.855469 C 134.390625 138.964844 118.1875 139.367188 111.179688 133.242188 C 119.347656 126.890625 135.226563 103.253906 135.226563 92.898438 "/>
</g>
</g>
</svg>
